# AST/ASF file generated using VICON BodyLanguage
# -----------------------------------------------
:version 1.10
:name VICON
:units
  mass 1.0
  length 0.45
  angle deg
:documentation
   .ast/.asf automatically generated from VICON data using
   VICON BodyBuilder and BodyLanguage model FoxedUp or BRILLIANT.MOD
:root
   order TX TY TZ RX RY RZ
   axis XYZ
   position 0 0 0  
   orientation 0 0 0 
:bonedata
  begin
     id 1 
     name lhipjoint
     direction 0.547975 -0.797114 0.253638 
     length 2.36201 
     axis 0 0 0  XYZ
  end
  begin
     id 2 
     name lfemur
     direction 0.34202 -0.939693 0  
     length 7.69075  
     axis 0 0 20  XYZ
    dof rx ry rz
    limits (-160.0 20.0)
           (-70.0 70.0)
           (-60.0 70.0)
  end
  begin
     id 3 
     name ltibia
     direction 0.34202 -0.939693 0   
     length 7.91399   
     axis 0 0 20   XYZ
    dof rx
    limits (-10.0 170.0)
  end
  begin
     id 4 
     name lfoot
     direction 0.0705293 -0.193778 0.978507   
     length 2.13618   
     axis -90 7.62852e-016 20   XYZ
    dof rx rz
    limits (-45.0 90.0)
           (-70.0 20.0)
  end
  begin
     id 5 
     name ltoes
     direction 1.53592e-011 -4.21925e-011 1   
     length 1.07518   
     axis -90 7.62852e-016 20   XYZ
    dof rx
    limits (-90.0 20.0)
  end
  begin
     id 6 
     name rhipjoint
     direction -0.57 -0.782963 0.249136   
     length 2.4047  
     axis 0 0 0  XYZ 
  end
  begin
     id 7 
     name rfemur
     direction -0.34202 -0.939693 0   
     length 7.51486   
     axis 0 0 -20   XYZ
    dof rx ry rz
    limits (-160.0 20.0)
           (-70.0 70.0)
           (-70.0 60.0)
  end
  begin
     id 8 
     name rtibia
     direction -0.34202 -0.939693 0   
     length 8.08317   
     axis 0 0 -20   XYZ
    dof rx
    limits (-10.0 170.0)
 end
 begin
     id 9 
     name rfoot
     direction -0.104954 -0.281256 0.953876   
     length 2.30343  
     axis -90 -7.62852e-016 -20   XYZ
    dof rx rz
    limits (-45.0 90.0)
           (-20.0 70.0)
  end
  begin
     id 10 
     name rtoes
     direction -1.53556e-011 -4.21922e-011 1   
     length 1.14803   
     axis -90 -7.62852e-016 -20   XYZ
    dof rx
    limits (-90.0 20.0)
  end
  begin
     id 11 
     name lowerback
     direction -0.0152855 0.99353 -0.11254   
     length 2.05311   
     axis 0 0 0   XYZ
    dof rx ry rz
    limits (-20.0 45.0)
           (-30.0 30.0)
           (-30.0 30.0)
  end
  begin
     id 12 
     name upperback
     direction -0.00157509 0.999443 -0.033332   
     length 2.06353   
     axis 0 0 0   XYZ
    dof rx ry rz
    limits (-20.0 45.0)
           (-30.0 30.0)
           (-30.0 30.0)
  end
  begin
     id 13 
     name thorax
     direction 0.00577788 0.999804 0.0189484   
     length 2.08472   
     axis 0 0 0   XYZ
    dof rx ry rz
    limits (-20.0 45.0)
           (-30.0 30.0)
           (-30.0 30.0)
  end
  begin
     id 14 
     name lowerneck
     direction -1.09301e-005 0.994719 0.10264   
     length 1.76249   
     axis 0 0 0   XYZ
    dof rx ry rz
    limits (-20.0 45.0)
           (-30.0 30.0)
           (-30.0 30.0)
  end
  begin
     id 15 
     name upperneck
     direction 0.0495018 0.988526 -0.142706   
     length 1.77897   
     axis 0 0 0   XYZ
    dof rx ry rz
    limits (-20.0 45.0)
           (-30.0 30.0)
           (-30.0 30.0)
  end
  begin
     id 16
     name head
     direction 0.0142736 0.998114 -0.0597101  
     length 1.78934  
     axis 0 0 0   XYZ
    dof rx ry rz
    limits (-20.0 45.0)
           (-30.0 30.0)
           (-30.0 30.0)
  end
  begin
     id 17 
     name lclavicle
     direction 0.918111 0.396107 -0.0130883  
     length 3.37276  
     axis 0 0 0   XYZ
    dof ry rz
    limits (-20.0 10.0)
           (0.0 20.0)
  end
  begin
     id 18 
     name lhumerus
     direction 1 -4.48975e-011 -3.26108e-027   
     length 5.34298   
     axis 180 -30 -90   XYZ
    dof rx ry rz
    limits (-60.0 90.0)
           (-90.0 90.0)
           (-90.0 90.0)
  end
  begin
     id 19
     name lradius
     direction 1 -4.48964e-011 -8.84413e-028   
     length 3.67262   
     axis 180 -30 -90   XYZ
    dof rx
    limits (-10.0 170.0)
  end
  begin
     id 20
     name lwrist
     direction 1 -4.48991e-011 -1.24264e-027   
     length 1.83631   
     axis -2.17013e-015 90 90   XYZ
    dof ry
    limits (-180.0 0.0)
 end
  begin
     id 21 
     name lhand
     direction 1 -4.48855e-011 -2.48528e-027   
     length 0.599298   
     axis 1.58582e-015 90 90   XYZ
    dof rx rz
    limits (-90.0 90.0)
           (-45.0 45.0)
  end
  begin
     id 22 
     name lfingers
     direction 1 -4.48811e-011 -4.97056e-027   
     length 0.48317   
     axis 3.17164e-015 90 90   XYZ
    dof rx
    limits (0.0 90.0)
  end
  begin
     id 23
     name lthumb
     direction 0.707107 -6.34882e-011 0.707107   
     length 0.693738   
     axis -90 45 2.85299e-015   XYZ
    dof rx rz
    limits (-45.0 45.0)
           (-45.0 45.0)
  end
  begin
     id 24 
     name rclavicle
     direction -0.920511 0.384752 -0.0680135   
     length 3.43787  
     axis 0 0 0   XYZ 
    dof ry rz
    limits (-10.0 20.0)
           (-20.0 0.0)
  end
  begin
     id 25 
     name rhumerus
     direction -0.999976 -0.00330524 0.00603274  
     length 5.5498   
     axis 180 30 90   XYZ
    dof rx ry rz
    limits (-90.0 60.0)
           (-90.0 90.0)
           (-90.0 90.0)
  end
  begin
     id 26 
     name rradius
     direction -1 -4.48967e-011 8.62438e-027   
     length 3.69401   
     axis 180 30 90   XYZ
    dof rx
    limits (-10.0 170.0)
  end
  begin
     id 27 
     name rwrist
     direction -1 -4.4897e-011 9.54866e-027   
     length 1.84701   
     axis -7.69462e-015 -90 -90   XYZ
    dof ry
    limits (-180.0 0.0)
  end
  begin
     id 28
     name rhand
     direction -1 -4.48982e-011 1.90973e-026   
     length 0.638113   
     axis -1.21857e-014 -90 -90   XYZ
    dof rx rz
    limits (-90.0 90.0)
           (-45.0 45.0)
  end
  begin
     id 29
     name rfingers
     direction -1 -4.48936e-011 3.81946e-026   
     length 0.514463   
     axis -2.43714e-014 -90 -90   XYZ
    dof rx
    limits (0.0 90.0)
  end
  begin
     id 30
     name rthumb
     direction -0.707107 -6.34942e-011 0.707107   
     length 0.738669   
     axis -90 -45 -2.85299e-015   XYZ
    dof rx rz
    limits (-45.0 45.0)
           (-45.0 45.0)
  end
:hierarchy
  begin
    root lhipjoint rhipjoint lowerback
    lhipjoint lfemur
    lfemur ltibia
    ltibia lfoot
    lfoot ltoes
    rhipjoint rfemur
    rfemur rtibia
    rtibia rfoot
    rfoot rtoes
    lowerback upperback
    upperback thorax
    thorax lowerneck lclavicle rclavicle
    lowerneck upperneck
    upperneck head
    lclavicle lhumerus
    lhumerus lradius
    lradius lwrist
    lwrist lhand lthumb
    lhand lfingers
    rclavicle rhumerus
    rhumerus rradius
    rradius rwrist
    rwrist rhand rthumb
    rhand rfingers
  end

#!OML:ASF F:\twosubjects\two\Thursday\Session 1\Rory.ASF
:FULLY-SPECIFIED
:DEGREES
115
root 11.3286 17.8539 -9.62805 -0.348902 -10.0373 4.74207
lowerback -1.02924 -0.296665 -5.45529
upperback 1.92058 -0.249347 -1.03143
thorax 2.57744 -0.222172 1.98571
lowerneck -4.70889 1.35568 -0.209768
upperneck 43.5112 2.15778 -0.81161
head 16.4825 0.667969 -0.0453964
rclavicle -1.24132e-014 2.03257e-014
rhumerus -29.5449 -5.78641 -79.6734
rradius 33.8843
rwrist 17.9714
rhand -19.2382 24.2046
rfingers 7.12502
rthumb 7.07526 -5.65716
lclavicle -1.24132e-014 2.03257e-014
lhumerus -38.9761 18.0475 78.5593
lradius 33.8532
lwrist -21.5876
lhand -13.6162 29.082
lfingers 7.12502
lthumb 12.4991 58.6882
rfemur -13.641 5.7849 16.4089
rtibia 29.8718
rfoot -16.0682 -8.96943
rtoes 3.08453
lfemur -6.71029 0.859177 -18.1312
ltibia 24.1441
lfoot -15.1965 8.7935
ltoes 16.5264
116
root 11.3863 17.8661 -9.65713 0.0804733 -10.8188 4.91909
lowerback -1.45261 -0.11316 -5.40661
upperback 1.59159 0.0116775 -1.09002
thorax 2.45592 -0.0817294 1.9073
lowerneck -4.68581 1.31561 -0.112007
upperneck 43.6731 2.02429 -0.707117
head 16.5675 0.63794 -0.0364601
rclavicle -1.56854e-015 -2.27608e-014
rhumerus -29.9135 -6.76257 -79.1657
rradius 33.5904
rwrist 17.2968
rhand -19.995 24.3714
rfingers 7.12502
rthumb 6.34464 -5.51357
lclavicle -1.56854e-015 -2.27608e-014
lhumerus -39.3144 18.1779 78.4573
lradius 33.7174
lwrist -21.0682
lhand -13.035 29.4265
lfingers 7.12502
lthumb 13.0595 58.9977
rfemur -14.6004 5.60131 15.9158
rtibia 29.9522
rfoot -15.8334 -8.14294
rtoes 1.4513
lfemur -6.71179 1.06455 -18.6407
ltibia 23.8778
lfoot -15.1204 9.82535
ltoes 14.6945
117
root 11.4245 17.868 -9.67865 0.0776486 -11.2299 5.08307
lowerback -1.80913 0.0194062 -5.61859
upperback 1.54295 0.21719 -1.08022
thorax 2.59162 0.0142884 2.04392
lowerneck -4.76966 1.1271 -0.138434
upperneck 43.8703 1.69704 -0.617057
head 16.6976 0.505284 -0.0381289
rclavicle -5.84241e-015 2.23633e-014
rhumerus -30.1989 -7.95042 -78.5672
rradius 33.428
rwrist 16.7469
rhand -20.6347 23.9895
rfingers 7.12502
rthumb 5.72704 -5.91314
lclavicle -5.84241e-015 2.23633e-014
lhumerus -39.5285 18.1304 78.5961
lradius 33.7298
lwrist -20.1495
lhand -11.258 31.098
lfingers 7.12502
lthumb 14.7719 60.5516
rfemur -14.9359 5.86987 15.5858
rtibia 30.0482
rfoot -15.7498 -8.17897
rtoes -0.486708
lfemur -6.28594 1.19887 -18.9505
ltibia 23.7383
lfoot -15.4303 10.1269
ltoes 14.7237
118
root 11.4386 17.8548 -9.69385 -0.787616 -10.6676 5.06578
lowerback -1.42304 -0.195913 -6.08863
upperback 1.52 -0.0926432 -0.776637
thorax 2.37755 -0.145182 2.60815
lowerneck -3.92219 0.993786 -0.962674
upperneck 44.0864 1.43229 -0.117086
head 16.5968 0.320406 0.293024
rclavicle 2.47052e-014 -1.21259e-014
rhumerus -31.1252 -8.47282 -77.7752
rradius 33.4031
rwrist 15.8127
rhand -21.6752 23.799
rfingers 7.12502
rthumb 4.72241 -6.12834
lclavicle 2.47052e-014 -1.21259e-014
lhumerus -40.475 18.4585 78.6148
lradius 33.8963
lwrist -19.9038
lhand -10.5899 32.1737
lfingers 7.12502
lthumb 15.4156 61.5789
rfemur -13.9647 6.09421 15.6987
rtibia 30.2034
rfoot -15.9509 -9.0158
rtoes -1.37003
lfemur -4.92738 1.05607 -18.8702
ltibia 23.66
lfoot -16.0836 8.8581
ltoes 15.762
119
root 11.4812 17.8437 -9.72889 -1.02248 -10.8993 5.05375
lowerback -1.28357 -0.0761444 -6.11033
upperback 1.13044 0.0380144 -0.592522
thorax 1.88413 -0.0595566 2.81537
lowerneck -2.77777 0.820319 -1.5809
upperneck 44.2122 1.09541 0.261661
head 16.3841 0.125277 0.521779
rclavicle -2.89107e-014 -5.96354e-016
rhumerus -32.3515 -8.94009 -76.9318
rradius 33.3444
rwrist 14.8089
rhand -23.0769 23.8216
rfingers 7.12502
rthumb 3.36887 -6.13154
lclavicle -2.89107e-014 -5.96354e-016
lhumerus -41.3864 18.0988 78.7868
lradius 33.87
lwrist -20.2811
lhand -11.2917 32.0128
lfingers 7.12502
lthumb 14.7394 61.4688
rfemur -14.0628 5.90486 15.5919
rtibia 30.4308
rfoot -15.837 -8.60773
rtoes -1.79947
lfemur -4.23132 1.13615 -19.0479
ltibia 23.4977
lfoot -16.2399 8.64451
ltoes 14.9253
120
root 11.5184 17.8276 -9.76251 -1.17433 -11.0863 5.18602
lowerback -1.31467 -0.099722 -6.44293
upperback 1.42755 0.0285044 -0.600978
thorax 2.21121 -0.0854065 2.99222
lowerneck -4.00795 0.683703 -1.32344
upperneck 44.4185 0.92101 0.100625
head 16.8101 0.0675537 0.385646
rclavicle -1.81826e-014 2.78299e-015
rhumerus -31.84 -9.80343 -76.7768
rradius 32.9968
rwrist 14.1524
rhand -24.1153 23.8265
rfingers 7.12502
rthumb 2.36602 -6.14008
lclavicle -1.81826e-014 2.78299e-015
lhumerus -40.7756 18.1596 78.922
lradius 33.7401
lwrist -20.7257
lhand -11.8082 32.1274
lfingers 7.12502
lthumb 14.2418 61.6191
rfemur -14.2482 6.13456 15.3412
rtibia 30.711
rfoot -15.7826 -8.58126
rtoes -1.95358
lfemur -3.62577 0.997924 -19.3688
ltibia 23.3343
lfoot -16.0896 9.22501
ltoes 14.8799
121
root 11.5582 17.8192 -9.79523 -1.27605 -11.0887 5.24302
lowerback -1.4658 -0.250821 -6.70232
upperback 1.41122 -0.156556 -0.530356
thorax 2.30011 -0.184896 3.20414
lowerneck -3.89636 0.638561 -1.24035
upperneck 44.2517 0.868087 -0.0291965
head 16.6873 0.0407282 0.302088
rclavicle -1.58407e-015 1.07344e-014
rhumerus -31.8101 -10.8021 -76.2172
rradius 32.3538
rwrist 13.849
rhand -24.3503 24.6064
rfingers 7.12502
rthumb 2.13907 -5.36267
lclavicle -1.58407e-015 1.07344e-014
lhumerus -41.1708 18.7269 78.6535
lradius 33.9005
lwrist -20.9999
lhand -11.1642 32.6897
lfingers 7.12502
lthumb 14.8623 62.1366
rfemur -14.4009 6.66907 15.162
rtibia 30.9679
rfoot -15.7417 -9.0606
rtoes -2.01616
lfemur -3.18013 0.941655 -19.5927
ltibia 23.3385
lfoot -15.9436 9.60604
ltoes 14.6048
122
root 11.5966 17.8133 -9.83762 -1.43879 -10.8339 5.17814
lowerback -1.29135 -0.557086 -6.9053
upperback 1.55082 -0.571292 -0.373974
thorax 2.39515 -0.403066 3.46531
lowerneck -4.70998 0.706649 -1.29033
upperneck 44.3322 1.00365 -0.0697338
head 16.936 0.0769319 0.314863
rclavicle -1.78347e-014 5.56597e-015
rhumerus -31.3031 -11.4248 -75.8824
rradius 31.6493
rwrist 13.6136
rhand -24.7239 25.1124
rfingers 7.12502
rthumb 1.77823 -4.8599
lclavicle -1.78347e-014 5.56597e-015
lhumerus -41.3921 19.6606 78.4215
lradius 34.1168
lwrist -20.7821
lhand -12.68 31.9142
lfingers 7.12502
lthumb 13.4016 61.4631
rfemur -14.4124 6.95504 15.136
rtibia 31.1317
rfoot -15.6389 -9.51662
rtoes -1.87871
lfemur -2.78724 1.13649 -19.6417
ltibia 23.4561
lfoot -15.8794 9.0749
ltoes 12.3235
123
root 11.6355 17.8067 -9.87962 -1.58076 -10.7268 5.22972
lowerback -1.22896 -0.791186 -7.22103
upperback 1.57125 -0.882533 -0.260962
thorax 2.42444 -0.566456 3.74854
lowerneck -5.19519 0.729905 -1.45029
upperneck 44.5979 1.03653 0.00736558
head 17.2146 0.0640903 0.385647
rclavicle 1.33496e-014 8.34896e-015
rhumerus -31.5637 -10.9514 -75.8386
rradius 31.8068
rwrist 12.6587
rhand -25.5229 24.3387
rfingers 7.12502
rthumb 1.00653 -5.63865
lclavicle 1.33496e-014 8.34896e-015
lhumerus -41.6908 20.0039 78.4021
lradius 33.9156
lwrist -19.8908
lhand -17.8919 29.5439
lfingers 7.12502
lthumb 8.37463 59.3579
rfemur -14.4637 6.78028 14.9694
rtibia 31.1926
rfoot -15.4976 -9.47347
rtoes -2.82142
lfemur -2.43508 1.11569 -19.8241
ltibia 23.694
lfoot -16.2396 8.30759
ltoes 12.8931
124
root 11.6783 17.8046 -9.91943 -1.6344 -10.8488 5.21875
lowerback -1.36107 -0.839487 -7.41856
upperback 1.62244 -0.930634 -0.160172
thorax 2.56413 -0.601282 3.96001
lowerneck -5.62716 0.62715 -1.6152
upperneck 44.8236 0.834295 0.195
head 17.4613 -0.029491 0.474058
rclavicle 1.92821e-014 -1.15295e-014
rhumerus -31.9033 -10.6702 -75.6352
rradius 31.9973
rwrist 11.8292
rhand -26.3734 23.0071
rfingers 7.12502
rthumb 0.185068 -6.97256
lclavicle 1.92821e-014 -1.15295e-014
lhumerus -41.5527 19.9576 78.578
lradius 33.3848
lwrist -19.7942
lhand -19.2614 29.2641
lfingers 7.12502
lthumb 7.05283 59.1266
rfemur -14.6403 6.66735 14.8376
rtibia 31.2485
rfoot -15.327 -9.32849
rtoes -3.91293
lfemur -2.16928 0.978194 -19.9745
ltibia 23.9965
lfoot -16.5246 8.10387
ltoes 13.6738
